<svg width="30" height="30" viewBox="0 0 30 30" fill="none" xmlns="http://www.w3.org/2000/svg">
<circle cx="15" cy="15" r="15" fill="#FEA013"/>
<circle cx="15" cy="15" r="13" fill="#F8F8F8"/>
<g clip-path="url(#clip0_6_135)">
<path d="M28.096 14.9965C28.1052 14.6846 28.1875 10.226 25.5489 7.32363C25.4316 7.06419 24.8756 6.01856 23.081 4.74063C22.2853 4.12349 21.4403 3.57286 20.5544 3.09431L20.5509 3.09256C20.4389 3.03262 18.2505 1.875 15.5945 1.875C15.3928 1.875 15.1933 1.88681 14.996 1.90038V1.89687C12.9708 1.85269 10.9591 2.37375 9.74683 2.92106C8.67145 3.40669 7.47752 4.22088 7.39133 4.28387C5.90208 5.11687 3.07802 8.45981 2.85445 10.2312C1.95189 11.3849 1.19764 16.5671 2.8562 19.7237C4.01908 24.1105 8.3967 26.3059 8.74495 26.4743C8.9567 26.6095 11.3424 28.0843 14.2732 28.0843C14.3961 28.0843 15.1395 28.1254 15.4046 28.1254C18.5725 28.1254 23.2669 25.8924 24.2495 24.1433C26.9493 22.1684 28.3489 17.079 28.096 14.9965ZM8.76902 21.5866C7.51383 19.5561 6.79852 16.9031 6.64539 16.2937C7.04264 15.6983 9.0022 12.809 10.1187 11.9397C10.7509 12.0561 13.3908 12.5408 15.8806 12.9914C16.1934 13.8021 17.5658 17.3791 17.9587 18.7599C17.5256 19.2735 15.8241 21.2545 14.149 22.8059C12.3705 22.8142 9.34564 21.7882 8.76902 21.5866ZM24.5479 7.37875C24.5426 7.57562 24.4958 8.27562 24.1607 9.07931C23.4953 8.73937 21.8227 8.01137 19.5302 7.88844C19.1833 7.37612 17.8778 5.58981 15.8158 4.35081C16.098 3.79869 16.4909 3.12538 16.7206 2.92019C16.795 2.89919 16.9105 2.87994 17.0863 2.87994C18.1919 2.87994 20.102 3.604 20.2683 3.66831C20.4446 3.7615 23.8781 5.61037 24.5479 7.37875ZM6.15058 15.8803C4.65302 15.6248 3.7627 15.1593 3.4967 15.0018C2.93977 12.9818 3.3882 10.7987 3.45733 10.4859C4.00683 9.50325 5.57133 6.99856 6.60339 6.523C7.67308 6.30469 9.00702 6.57594 9.55039 6.7085C9.49921 7.41506 9.40077 9.38906 9.69302 11.4606C8.50914 12.4135 6.63533 15.1562 6.15058 15.8803ZM14.8621 2.54438C15.1981 2.56931 15.6911 2.64281 16.0289 2.743C15.692 3.191 15.3468 3.85512 15.1836 4.18325C14.4968 4.29569 11.888 4.79444 9.84133 6.12138C9.42877 6.012 8.18277 5.72019 7.00283 5.82081C7.29508 5.25513 7.73171 4.83687 7.77852 4.794C7.94083 4.67762 11.0655 2.49144 14.8621 2.53869V2.54438ZM23.2166 19.2101C22.7047 19.1891 20.7325 19.0766 18.5699 18.5687C18.1556 17.1241 16.7875 13.5619 16.4747 12.7517C17.47 11.3331 18.4804 9.92511 19.5057 8.52806C21.9942 8.66456 23.7416 9.57238 24.0798 9.76181C25.5213 12.0801 25.8376 14.4479 25.881 14.8434C25.1153 17.226 23.6011 18.8303 23.2166 19.2101ZM2.59895 13.4771C2.6357 14.0309 2.72452 14.6141 2.88508 15.1908C2.74073 15.5644 2.64059 15.9536 2.5867 16.3506C2.49533 15.3947 2.49944 14.4321 2.59895 13.4771ZM6.8182 23.6966C7.47795 23.0609 8.29127 22.4423 8.6067 22.2087C9.31983 22.4598 12.2485 23.4499 14.1153 23.4499C14.4333 23.8764 15.4733 25.2121 16.7481 26.2332C15.9545 27.0098 14.8083 27.3764 14.6057 27.4373C11.0501 27.5326 7.58733 25.5341 6.8182 23.6966ZM16.2083 27.432C16.6116 27.1971 17.0321 26.8878 17.3799 26.4962C17.9473 26.4179 20.3825 25.9988 22.5831 24.3822C22.7283 24.3979 22.9676 24.4172 23.235 24.4097C21.9146 25.7034 18.6928 27.1485 16.2083 27.432ZM22.9563 23.7675C23.7468 21.7078 23.7131 20.1546 23.6742 19.6585C24.1082 19.2332 25.5975 17.6464 26.4239 15.2341C26.8693 15.3084 27.1589 15.4218 27.2963 15.4852C27.344 15.6602 27.4236 16.0644 27.3785 16.6774C27.0416 18.8837 25.8788 22.1899 23.8418 23.6516C23.637 23.7561 23.2765 23.7789 22.9563 23.7675Z" fill="#222222"/>
</g>
<defs>
<clipPath id="clip0_6_135">
<rect width="28" height="28" fill="white" transform="translate(1 1)"/>
</clipPath>
</defs>
</svg>
